<svg width="500" height="100" viewBox="0 10 537 100" fill="none" xmlns="http://www.w3.org/2000/svg">
<g clip-path="url(#clip0_11212_183)">
<path d="M167.089 53.51C160.039 52.22 153.989 51.13 153.989 45.47C153.989 40.71 157.559 36.83 164.709 36.83C171.859 36.83 175.429 40.4 175.529 45.37H187.539C187.039 33.46 178.009 25.42 164.609 25.42C151.209 25.42 141.679 33.86 141.679 45.87C141.679 60.96 153.289 63.04 163.119 64.83C170.169 66.12 176.219 67.21 176.219 72.87C176.219 78.03 172.349 81.51 164.509 81.51C156.669 81.51 152.899 78.04 152.799 72.87H140.389C140.689 85.28 150.119 92.92 164.509 92.92C178.899 92.92 188.629 85.08 188.629 72.47C188.629 57.38 176.919 55.3 167.089 53.51Z" fill="black"/>
<path d="M224.628 72.77C224.628 79.42 221.248 81.9 216.388 81.9C211.528 81.9 208.148 79.32 208.148 72.77V53.31H233.458V42.59H208.148V25.22H196.338V72.77C196.338 86.37 204.478 92.92 216.388 92.92C228.298 92.92 236.438 86.37 236.438 72.77V71.48H224.628V72.77Z" fill="black"/>
<path d="M266.988 41.3C251.498 41.3 240.588 52.22 240.588 67.11C240.588 82 251.508 92.92 266.988 92.92C282.468 92.92 293.388 82 293.388 67.11C293.388 52.22 282.468 41.3 266.988 41.3ZM266.988 81.9C258.348 81.9 252.498 75.75 252.498 67.11C252.498 58.47 258.358 52.32 266.988 52.32C275.618 52.32 281.378 58.47 281.378 67.11C281.378 75.75 275.618 81.9 266.988 81.9Z" fill="black"/>
<path d="M321.487 41.3C308.687 41.3 299.947 48.35 299.947 63.14V91.63H311.757V63.14C311.757 55.2 315.727 52.32 321.487 52.32C327.247 52.32 331.217 55.2 331.217 63.14V63.64H342.927V63.34C342.927 48.35 334.287 41.31 321.487 41.31V41.3Z" fill="black"/>
<path d="M384.099 67.51C384.099 76.64 378.939 81.31 371.689 81.31C364.439 81.31 359.279 76.84 359.279 67.51V42.59H347.469V67.51C347.469 84.98 358.189 92.33 369.509 92.33C375.959 92.33 381.119 89.45 384.099 84.09V90.24C384.099 99.77 379.529 103.64 371.489 103.64C365.529 103.64 361.659 101.56 359.679 96.99H347.869C350.649 108.6 360.079 113.87 371.489 113.87C385.089 113.87 395.909 107.02 395.909 89.95V42.6H384.099V67.52V67.51Z" fill="black"/>
<path d="M429.198 76.84L412.228 26.71H398.428L422.048 91.63H436.048L459.568 26.71H446.068L429.198 76.84Z" fill="black"/>
<path d="M472.287 20.46C467.717 20.46 464.447 23.84 464.447 28.4C464.447 32.96 467.727 36.24 472.287 36.24C476.847 36.24 480.127 32.97 480.127 28.4C480.127 23.83 476.847 20.46 472.287 20.46Z" fill="black"/>
<path d="M478.148 42.59H466.338V91.62H478.148V42.59Z" fill="black"/>
<path d="M526.118 21.15V49.74C522.648 44.28 516.788 41.3 509.738 41.3C497.828 41.3 485.318 49.84 485.318 66.61C485.318 82.19 496.238 92.92 511.818 92.92C527.398 92.92 537.918 82.6 537.918 66.71V21.15H526.108H526.118ZM511.728 81.9C503.088 81.9 497.238 75.75 497.238 67.11C497.238 58.47 503.098 52.32 511.728 52.32C520.358 52.32 526.118 58.47 526.118 67.11C526.118 75.75 520.358 81.9 511.728 81.9Z" fill="black"/>
<path d="M114.348 50.98L41.438 1.7C38.398 -0.359999 34.508 -0.56 31.268 1.15C28.028 2.87 26.018 6.21 26.018 9.88V15.92L37.638 23.77V13.14L105.718 59.17L37.638 105.19V67.22V51.8L26.018 43.95V68.6V81.39L20.218 85.31L12.278 90.68V27.66L20.218 33.02L43.438 48.72L58.898 59.17L43.438 69.61V83.63L67.528 67.35C70.248 65.51 71.868 62.45 71.868 59.17C71.868 55.89 70.248 52.82 67.528 50.98L16.078 16.21C13.048 14.16 9.14797 13.95 5.90797 15.67C2.67797 17.38 0.667969 20.73 0.667969 24.39V93.94C0.667969 97.6 2.67797 100.95 5.90797 102.66C7.37797 103.44 8.95797 103.82 10.548 103.82C12.488 103.82 14.418 103.25 16.078 102.13L20.218 99.33L26.018 95.4V108.45C26.018 112.11 28.028 115.46 31.268 117.17C32.728 117.95 34.318 118.34 35.908 118.34C37.838 118.34 39.768 117.76 41.438 116.64L114.348 67.35C117.068 65.51 118.698 62.45 118.698 59.17C118.698 55.89 117.068 52.82 114.348 50.98Z" fill="url(#paint0_linear_11212_183)"/>
</g>
<defs>
<linearGradient id="paint0_linear_11212_183" x1="-2.66203" y1="59.17" x2="143.498" y2="59.17" gradientUnits="userSpaceOnUse">
<stop stop-color="#D8A631"/>
<stop offset="1" stop-color="#F7DB74"/>
</linearGradient>
<clipPath id="clip0_11212_183">
<rect width="537.26" height="118.34" fill="white" transform="translate(0.667969)"/>
</clipPath>
</defs>
</svg>